<?xml version="1.0" encoding="UTF-8" standalone="no"?>
<!-- Generator: Adobe Illustrator 14.0.0, SVG Export Plug-In . SVG Version: 6.00 Build 43363)  -->

<svg
   xmlns:dc="http://purl.org/dc/elements/1.1/"
   xmlns:cc="http://creativecommons.org/ns#"
   xmlns:rdf="http://www.w3.org/1999/02/22-rdf-syntax-ns#"
   xmlns:svg="http://www.w3.org/2000/svg"
   xmlns="http://www.w3.org/2000/svg"
   xmlns:sodipodi="http://sodipodi.sourceforge.net/DTD/sodipodi-0.dtd"
   xmlns:inkscape="http://www.inkscape.org/namespaces/inkscape"
   version="1.1"
   id="Layer_1"
   x="0px"
   y="0px"
   width="271"
   height="271"
   viewBox="0 0 271 271"
   enable-background="new 0 0 172 271"
   xml:space="preserve"
   inkscape:version="0.48.2 r9819"
   sodipodi:docname="Portal_symbol.svg"
   inkscape:export-filename="C:\Users\Anhoa.Vu\Dropbox\workspace\TeXpert\extra\Portal_symbol.png"
   inkscape:export-xdpi="21.254612"
   inkscape:export-ydpi="21.254612"><metadata
   id="metadata3001"><rdf:RDF><cc:Work
       rdf:about=""><dc:format>image/svg+xml</dc:format><dc:type
         rdf:resource="http://purl.org/dc/dcmitype/StillImage" /><dc:title></dc:title></cc:Work></rdf:RDF></metadata><defs
   id="defs2999" /><sodipodi:namedview
   pagecolor="#ffffff"
   bordercolor="#666666"
   borderopacity="1"
   objecttolerance="10"
   gridtolerance="10"
   guidetolerance="10"
   inkscape:pageopacity="0"
   inkscape:pageshadow="2"
   inkscape:window-width="1920"
   inkscape:window-height="1016"
   id="namedview2997"
   showgrid="false"
   inkscape:zoom="0.87084871"
   inkscape:cx="-93.135593"
   inkscape:cy="135.5"
   inkscape:window-x="-8"
   inkscape:window-y="-8"
   inkscape:window-maximized="1"
   inkscape:current-layer="Layer_1" />
<path
   d="m 99.507,29.193 c -6.159,15.085 -15.792,26.698 -19.826,43.906 16.25,-33.522 55.116,-86.437 99.139,-62.316 24.214,13.264 34.828,48.393 36.826,83.562 3.918,68.984 -34.131,152.554 -83.565,168.539 C 100.827,272.991 77.148,247.436 66.934,227.479 35.391,165.854 67.299,64.833 99.507,29.193 z m 35.409,1.415 C 90.17,54.767 54.786,177.775 91.012,231.725 c 9.242,13.766 34.767,28.711 50.987,12.746 -37.363,5.635 -51.54,-31.48 -53.82,-60.9 5.614,26.404 24.913,58.283 55.237,45.32 45.029,-19.252 67.337,-115.891 48.152,-172.787 4.002,24.058 2.783,56.78 -8.498,73.647 15.487,-41.215 1.412,-125.902 -48.154,-99.143 z"
   id="path2995"
   style="opacity:0.8;fill:#ffffff;fill-opacity:1"
   inkscape:connector-curvature="0" />
</svg>